<svg width="52" height="52" viewBox="0 0 52 52" xmlns="http://www.w3.org/2000/svg"><title>Group 5 Copy 2</title><g fill="#C6C5C5" fill-rule="evenodd"><path d="M37.213 28a.795.795 0 0 0-.787.802v5.5c0 .045-.051.094-.124.094H14.698c-.073 0-.124-.05-.124-.094v-5.5a.795.795 0 0 0-.787-.802.795.795 0 0 0-.787.802v5.5A1.7 1.7 0 0 0 14.698 36h21.604A1.7 1.7 0 0 0 38 34.302v-5.5a.795.795 0 0 0-.787-.802"/><path d="M24.945 29.764a.773.773 0 0 0 1.11 0l6.715-6.893a.82.82 0 0 0 0-1.139.77.77 0 0 0-1.11 0l-5.375 5.518V12.805A.795.795 0 0 0 25.5 12a.795.795 0 0 0-.785.805V27.25l-5.375-5.518a.77.77 0 0 0-1.11 0 .82.82 0 0 0 0 1.139l6.715 6.893z"/><path d="M26 1.552C12.52 1.552 1.552 12.52 1.552 26S12.52 50.448 26 50.448 50.448 39.48 50.448 26 39.48 1.552 26 1.552M26 52C11.664 52 0 40.336 0 26S11.664 0 26 0s26 11.664 26 26-11.664 26-26 26"/></g></svg>